<?xml version="1.0"?>
<svg xmlns="http://www.w3.org/2000/svg" xmlns:xlink="http://www.w3.org/1999/xlink" viewBox="0 0 512 512" width="512" height="512"><defs><linearGradient id="linear-gradient" x1="94.343" y1="369.657" x2="413.657" y2="50.343" gradientUnits="userSpaceOnUse"><stop offset="0" stop-color="#41dfd0"/><stop offset="1" stop-color="#ee83ef"/></linearGradient></defs><g id="gradient"><path d="M295.537,210.851A71.739,71.739,0,0,0,346.6,232a72.655,72.655,0,0,0,43.325-14.442L404.8,206.4a8,8,0,0,0,0-12.8l-14.877-11.158A72.661,72.661,0,0,0,346.6,168a71.736,71.736,0,0,0-51.06,21.15l-5.194,5.193a8,8,0,0,0,0,11.314ZM346.6,184a56.552,56.552,0,0,1,33.725,11.242L386.667,200l-6.345,4.758A56.552,56.552,0,0,1,346.6,216a55.834,55.834,0,0,1-39.278-16A55.834,55.834,0,0,1,346.6,184ZM82.046,290.66a7.988,7.988,0,0,0-.361,10.252l9.186,11.811,29.7,74.248a8.01,8.01,0,0,0,1.55,2.455l96,104A8,8,0,0,0,224,496h64a8,8,0,0,0,5.911-2.609l102.16-112a8.006,8.006,0,0,0,1.773-3.165l20.777-71.735,4.035-6.053a8,8,0,0,0,.4-8.213c-.061-.114-.138-.216-.2-.327l1.368-4.721a111.139,111.139,0,0,0,6.129-45.733l-14.37-186.06a8,8,0,0,0-5.566-7.012,525.813,525.813,0,0,0-309.393-2.233l-7.32,2.2a8,8,0,0,0-5.673,7.046L73.8,239.429A112.555,112.555,0,0,0,81.5,289.3Zm22.842,14.023-.273-.683h26.856l21.669,36.116A8,8,0,0,0,160,344h40a8,8,0,0,0,4.8-1.6l13.869-10.408,1.612.537a60.682,60.682,0,0,0,16.735,8.413L213.194,360H147.913Zm159.684-72.378,16,40a8.007,8.007,0,0,0,2.99,3.685l12.655,8.436a17.474,17.474,0,0,1-4.034,31.074c-.048.017-.1.037-.144.055l-6.569,2.189a7.973,7.973,0,0,0-2.27,1.19,45.572,45.572,0,0,1-54.4,0,7.973,7.973,0,0,0-2.27-1.19l-6.565-2.188c-.051-.019-.1-.04-.151-.057a17.474,17.474,0,0,1-4.031-31.073l12.655-8.436a8.007,8.007,0,0,0,2.99-3.685l16-40a8,8,0,0,0,.572-2.972v-40a8,8,0,1,1,16,0v40A8,8,0,0,0,264.572,232.305Zm15.006,132.8L276.686,368H235.314l-2.892-2.892L256,346.245ZM256,474.667l-15.166-20.222A84.625,84.625,0,0,0,242.343,416h27.314a84.625,84.625,0,0,0,1.509,38.445ZM382.994,371.985,284.469,480H272l14.4-19.2a8,8,0,0,0,1.189-7.33A68.4,68.4,0,0,1,286.026,416H288a8,8,0,0,0,5.657-2.343l24-24a8,8,0,0,0-11.314-11.314L284.687,400H219.313l-21.656-21.657a8,8,0,0,0-11.314,11.314l24,24A8,8,0,0,0,216,416h9.974a68.4,68.4,0,0,1-1.563,37.47,8,8,0,0,0,1.189,7.33L240,480H227.5L134.879,379.658l-8.527-21.317,11.333,14.571A8,8,0,0,0,144,376h72a8,8,0,0,0,3.749-.938l6.594,6.595A8,8,0,0,0,232,384h48a8,8,0,0,0,5.657-2.343l6.594-6.595A8,8,0,0,0,296,376h72a8,8,0,0,0,6.656-3.562l14.511-21.767ZM363.719,360H298.806l-23.824-19.06a60.682,60.682,0,0,0,16.735-8.413l1.612-.537L307.2,342.4A8,8,0,0,0,312,344h40a8,8,0,0,0,6.86-3.884L380.529,304h20.523ZM97.231,143.905l53.426-7.632,50.466,25.233A22.311,22.311,0,1,0,221.078,121.6l-65.5-32.75a8,8,0,0,0-8.228.645L98.753,124.2l4.8-62.119,2.064-.621a509.839,509.839,0,0,1,294.824.57l4.726,61.194L365.122,89.854a8,8,0,0,0-8.7-1.009l-65.5,32.75a22.31,22.31,0,0,0,19.955,39.91l50.374-25.186,45.434,7.572c.026,0,.053.006.08.01l6.721,87.028-6.626-11.045a8,8,0,1,0-13.72,8.232l8.117,13.529A54.539,54.539,0,0,1,405.727,288H376a8,8,0,0,0-6.86,3.884L347.471,328h-32.8l-5.657-4.245a33.465,33.465,0,0,0-3.919-52.642l-10.587-7.058L280,227.793v-38.46a24,24,0,1,0-48,0v38.46l-14.5,36.262-10.587,7.058a33.464,33.464,0,0,0-3.918,52.642L197.332,328h-32.8L142.86,291.884A8,8,0,0,0,136,288H98.273a54.539,54.539,0,0,1,4.47-46.355l8.117-13.529a8,8,0,1,0-13.72-8.232l-6.635,11.059Zm30.116-20.464L152.73,105.31l61.193,30.6a6.311,6.311,0,0,1,2.428,9.146,6.323,6.323,0,0,1-8.073,2.144l-52.7-26.35a7.983,7.983,0,0,0-4.709-.764Zm252.867-.182-18.9-3.15a8,8,0,0,0-4.893.736l-52.7,26.349a6.323,6.323,0,0,1-8.074-2.143,6.312,6.312,0,0,1,2.429-9.146L358.9,105.5ZM107.2,206.4l14.877,11.158A72.661,72.661,0,0,0,165.4,232a71.735,71.735,0,0,0,51.06-21.15l5.194-5.193a8,8,0,0,0,0-11.314l-5.194-5.193A71.735,71.735,0,0,0,165.4,168a72.655,72.655,0,0,0-43.325,14.442L107.2,193.6a8,8,0,0,0,0,12.8Zm24.478-11.158A56.552,56.552,0,0,1,165.4,184a55.832,55.832,0,0,1,39.278,16A55.832,55.832,0,0,1,165.4,216a56.552,56.552,0,0,1-33.725-11.242L125.333,200Zm153-129.531a8,8,0,0,1,9.207-6.575l11.428,1.9a8,8,0,1,1-2.63,15.782l-11.429-1.9A8,8,0,0,1,284.68,65.711Zm-63.936,9.207-11.429,1.9a8,8,0,0,1-2.63-15.782l11.429-1.9a230.749,230.749,0,0,1,46.174-2.987,8,8,0,0,1-.576,15.99A215.1,215.1,0,0,0,220.744,74.918Z" style="fill:url(#linear-gradient)"/></g></svg>
